<?xml version="1.0" encoding="utf-8"?>
<!-- Generator: Adobe Illustrator 16.0.0, SVG Export Plug-In . SVG Version: 6.00 Build 0)  -->
<!DOCTYPE svg PUBLIC "-//W3C//DTD SVG 1.1//EN" "http://www.w3.org/Graphics/SVG/1.1/DTD/svg11.dtd">
<svg version="1.1" id="Layer_1" xmlns="http://www.w3.org/2000/svg" xmlns:xlink="http://www.w3.org/1999/xlink" x="0px" y="0px"
	 width="491.647px" height="130.262px" viewBox="0 0 491.647 130.262" enable-background="new 0 0 491.647 130.262"
	 xml:space="preserve">
<g>
	<polygon fill="#58595B" points="12.06,63.983 13.555,61.492 17.805,59.846 51.075,4.127 48.779,2.473 50.274,0 68.438,0 
		64.845,47.02 117.377,0 135.652,0 134.154,2.473 129.817,4.127 96.545,59.846 98.938,61.492 97.458,63.983 79.111,63.983 
		80.589,61.492 84.928,59.846 109.77,18.237 58.516,63.983 50.927,63.983 54.379,18.237 29.55,59.846 31.836,61.492 30.355,63.983 	
		"/>
	<polygon fill="#58595B" points="134.573,16.222 176.458,16.222 168.762,29.089 166.097,29.089 167.043,25.484 141.897,25.484 
		136.292,34.874 157.925,34.874 160.568,32.434 163.069,32.434 155.04,45.854 152.56,45.854 152.749,43.517 131.127,43.517 
		124.693,54.297 150.52,54.297 154.022,50.595 156.534,50.595 148.551,63.983 106.052,63.983 107.543,61.473 110.936,59.846 
		134.507,20.35 133.08,18.715 	"/>
	<path fill="#58595B" d="M194.046,25.484l-17.22,28.813h11.927c2.767,0,5.451-0.316,8.06-0.987c2.629-0.664,5.073-1.621,7.354-2.895
		c2.281-1.263,4.337-2.735,6.199-4.434c1.841-1.719,3.411-3.61,4.669-5.753c1.202-1.995,1.954-3.902,2.281-5.682
		c0.328-1.765,0.143-3.375-0.491-4.746c-0.64-1.391-1.882-2.439-3.667-3.191c-1.811-0.765-4.199-1.125-7.211-1.125H194.046z
		 M186.671,16.222h24.589c4.874,0,8.756,0.593,11.655,1.803c2.899,1.2,4.889,2.877,5.979,4.997c1.079,2.133,1.319,4.646,0.731,7.587
		c-0.599,2.925-1.934,6.132-3.994,9.568c-2.092,3.503-4.685,6.735-7.784,9.655c-3.104,2.941-6.53,5.452-10.284,7.554
		c-3.744,2.092-7.738,3.713-11.952,4.869c-4.234,1.166-8.52,1.729-12.882,1.729H158.16l1.493-2.511l3.304-1.627l23.586-39.496
		l-1.35-1.634L186.671,16.222z"/>
	<polygon fill="#58595B" points="218.374,63.983 219.872,61.473 223.263,59.846 246.823,20.35 245.387,18.715 246.885,16.222 
		262.054,16.222 260.56,18.715 257.282,20.35 233.695,59.846 235.046,61.473 233.548,63.983 	"/>
	<g>
		<g>
			<path fill="#58595B" d="M277.979,35.032l-32.152,50.236h203.266l30.83-50.236H277.979z M298.834,78.814l-0.7,1.569h-14.223
				l0.686-1.569l2.91-0.962l13.471-30.685h-14.934l-3.155,3.022h-1.897l4.889-9.788h45.229l-3.661,9.788h-1.877l-0.573-3.022
				h-14.733l-13.466,30.629L298.834,78.814z M358.184,58.562l0.077-2.261h-18.974l-2.608,5.922h16.309l1.591-1.528h1.888
				l-3.672,8.351h-1.867l-0.297-1.468h-16.304l-2.981,6.771h19.495l1.995-2.312h1.902l-3.662,8.346h-32.168l0.68-1.569l2.281-1.038
				l10.853-24.687l-1.376-1.033l0.695-1.555h31.703l-3.555,8.061H358.184z M396.06,78.538l-1.847-0.686
				c-1.442,0.486-2.803,0.941-4.051,1.345c-1.253,0.384-2.506,0.731-3.759,0.998c-1.263,0.296-2.526,0.501-3.82,0.623
				c-1.293,0.129-2.736,0.205-4.336,0.205c-3.09,0-5.805-0.373-8.157-1.074c-2.358-0.731-4.184-1.749-5.595-3.084
				c-1.366-1.34-2.205-2.92-2.512-4.797c-0.297-1.877,0.062-3.958,1.069-6.26c1.007-2.291,2.429-4.413,4.255-6.347
				c1.825-1.938,3.969-3.615,6.475-4.996c2.48-1.386,5.323-2.48,8.515-3.288c3.196-0.813,6.644-1.218,10.377-1.218
				c1.856,0,3.493,0.128,4.848,0.348c1.36,0.246,2.567,0.522,3.564,0.859c1.019,0.333,1.826,0.67,2.419,1.054
				c0.619,0.389,1.084,0.721,1.392,0.982l2.102-0.635l1.008,1.146l-10.546,7.277l-1.084-1.125l1.146-1.57
				c-1.038-0.89-2.184-1.514-3.457-1.846c-1.263-0.307-2.864-0.476-4.817-0.476c-2.015,0-3.948,0.266-5.805,0.787
				c-1.897,0.527-3.626,1.218-5.252,2.098c-1.621,0.904-3.033,1.912-4.219,3.099c-1.202,1.187-2.082,2.439-2.676,3.774
				c-0.572,1.299-0.721,2.506-0.485,3.6c0.23,1.08,0.762,2.036,1.621,2.885c0.839,0.818,2.005,1.452,3.457,1.954
				c1.442,0.485,3.141,0.721,5.043,0.721c2.735,0,4.889-0.194,6.489-0.562c1.591-0.384,2.921-0.839,3.979-1.37l0.373-1.719
				l1.964-0.91l4.117,7.19L396.06,78.538z M451.046,53.09l-10.852,24.687l1.355,1.038l-0.676,1.569h-11.373l0.68-1.569l2.281-1.038
				l4.285-9.764h-18.896l-4.286,9.764l1.355,1.038l-0.686,1.569h-11.619l0.7-1.569l2.271-1.038l10.842-24.687l-1.371-1.033
				l0.691-1.555h11.619l-0.67,1.555l-2.291,1.023l-3.82,8.699h18.886l3.841-8.699l-1.37-1.023l0.69-1.555h11.384l-0.711,1.555
				L451.046,53.09z"/>
		</g>
		<polygon fill="#58595B" points="268.059,15.926 267.966,15.606 267.768,15.926 267.679,15.926 267.679,16.069 232.29,73.127 
			6.896,73.127 0,84.174 236.795,84.174 236.795,83.528 237.47,84.767 271.944,29.294 271.919,29.207 483.497,29.207 
			491.647,15.926 		"/>
	</g>
</g>
<g>
	<path fill="#58595B" d="M0.177,97.414h18.218v3.076H3.493v7.623h13.774v2.904H3.493v8.512h15.159v2.99H0.177V97.414z"/>
	<path fill="#58595B" d="M22.787,104.217h2.922v2.598c0.866-1.071,1.783-1.84,2.751-2.308c0.968-0.467,2.045-0.7,3.23-0.7
		c2.598,0,4.352,0.905,5.264,2.717c0.501,0.991,0.752,2.41,0.752,4.256v11.74h-3.127v-11.535c0-1.117-0.166-2.018-0.496-2.701
		c-0.547-1.139-1.538-1.709-2.974-1.709c-0.729,0-1.328,0.074-1.794,0.223c-0.843,0.251-1.584,0.752-2.222,1.504
		c-0.513,0.604-0.846,1.229-1,1.871c-0.154,0.645-0.23,1.564-0.23,2.76v9.588h-3.076V104.217z"/>
	<path fill="#58595B" d="M52.428,104.951c0.579,0.398,1.169,0.98,1.771,1.743v-2.308h2.837v16.646c0,2.324-0.341,4.158-1.022,5.502
		c-1.272,2.484-3.673,3.727-7.205,3.727c-1.964,0-3.617-0.442-4.957-1.325s-2.09-2.265-2.249-4.144h3.127
		c0.147,0.82,0.442,1.452,0.884,1.896c0.691,0.684,1.779,1.025,3.264,1.025c2.345,0,3.88-0.832,4.606-2.495
		c0.431-0.979,0.629-2.729,0.595-5.247c-0.613,0.936-1.351,1.63-2.213,2.086c-0.862,0.455-2.003,0.684-3.422,0.684
		c-1.975,0-3.703-0.703-5.184-2.111c-1.481-1.406-2.221-3.734-2.221-6.98c0-3.064,0.746-5.457,2.238-7.178
		c1.493-1.721,3.294-2.581,5.405-2.581C50.112,103.892,51.361,104.245,52.428,104.951z M52.804,108.25
		c-0.93-1.094-2.114-1.641-3.554-1.641c-2.154,0-3.627,1.014-4.421,3.041c-0.419,1.083-0.629,2.502-0.629,4.256
		c0,2.062,0.417,3.632,1.25,4.709c0.833,1.076,1.953,1.614,3.358,1.614c2.199,0,3.746-0.997,4.642-2.991
		c0.499-1.127,0.748-2.443,0.748-3.947C54.198,111.023,53.733,109.344,52.804,108.25z"/>
	<path fill="#58595B" d="M61.718,97.414h3.127v3.486h-3.127V97.414z M61.718,104.302h3.127v18.218h-3.127V104.302z"/>
	<path fill="#58595B" d="M69.494,104.217h2.922v2.598c0.866-1.071,1.783-1.84,2.751-2.308c0.968-0.467,2.045-0.7,3.23-0.7
		c2.598,0,4.352,0.905,5.264,2.717c0.501,0.991,0.752,2.41,0.752,4.256v11.74h-3.127v-11.535c0-1.117-0.166-2.018-0.496-2.701
		c-0.547-1.139-1.538-1.709-2.974-1.709c-0.729,0-1.328,0.074-1.794,0.223c-0.843,0.251-1.584,0.752-2.222,1.504
		c-0.513,0.604-0.846,1.229-1,1.871c-0.154,0.645-0.23,1.564-0.23,2.76v9.588h-3.076V104.217z"/>
	<path fill="#58595B" d="M100.265,104.721c1.211,0.609,2.135,1.398,2.769,2.367c0.611,0.922,1.019,1.999,1.223,3.229
		c0.181,0.843,0.272,2.188,0.272,4.033H91.215c0.057,1.862,0.491,3.356,1.306,4.481s2.074,1.688,3.781,1.688
		c1.594,0,2.865-0.531,3.815-1.596c0.531-0.618,0.907-1.334,1.13-2.146h3.024c-0.08,0.672-0.345,1.422-0.795,2.248
		s-0.952,1.5-1.506,2.024c-0.927,0.911-2.075,1.526-3.442,1.846c-0.736,0.183-1.566,0.273-2.494,0.273
		c-2.264,0-4.184-0.829-5.758-2.486c-1.573-1.657-2.359-3.979-2.359-6.964c0-2.939,0.792-5.326,2.377-7.161
		c1.586-1.834,3.658-2.751,6.217-2.751C97.802,103.807,99.053,104.111,100.265,104.721z M101.366,111.906
		c-0.125-1.332-0.412-2.397-0.864-3.195c-0.837-1.48-2.231-2.222-4.187-2.222c-1.4,0-2.575,0.511-3.523,1.53
		c-0.949,1.02-1.453,2.314-1.509,3.887H101.366z"/>
	<path fill="#58595B" d="M119.729,104.721c1.212,0.609,2.135,1.398,2.77,2.367c0.611,0.922,1.018,1.999,1.223,3.229
		c0.181,0.843,0.271,2.188,0.271,4.033h-13.312c0.057,1.862,0.491,3.356,1.305,4.481c0.814,1.125,2.074,1.688,3.781,1.688
		c1.594,0,2.866-0.531,3.816-1.596c0.531-0.618,0.907-1.334,1.129-2.146h3.025c-0.08,0.672-0.346,1.422-0.795,2.248
		c-0.451,0.826-0.953,1.5-1.506,2.024c-0.928,0.911-2.076,1.526-3.443,1.846c-0.735,0.183-1.566,0.273-2.493,0.273
		c-2.265,0-4.184-0.829-5.758-2.486c-1.573-1.657-2.36-3.979-2.36-6.964c0-2.939,0.793-5.326,2.378-7.161
		c1.585-1.834,3.657-2.751,6.216-2.751C117.267,103.807,118.519,104.111,119.729,104.721z M120.831,111.906
		c-0.124-1.332-0.412-2.397-0.863-3.195c-0.837-1.48-2.232-2.222-4.187-2.222c-1.4,0-2.575,0.511-3.524,1.53
		s-1.452,2.314-1.508,3.887H120.831z"/>
	<path fill="#58595B" d="M127.976,104.217h2.922v3.161c0.239-0.615,0.826-1.364,1.76-2.247c0.935-0.883,2.012-1.324,3.23-1.324
		c0.057,0,0.154,0.006,0.291,0.017c0.137,0.012,0.369,0.034,0.7,0.068v3.247c-0.183-0.034-0.351-0.057-0.505-0.068
		c-0.153-0.012-0.321-0.018-0.504-0.018c-1.549,0-2.74,0.499-3.571,1.496c-0.832,0.997-1.247,2.145-1.247,3.443v10.527h-3.076
		V104.217z"/>
	<path fill="#58595B" d="M150.851,104.721c1.211,0.609,2.135,1.398,2.769,2.367c0.611,0.922,1.019,1.999,1.223,3.229
		c0.181,0.843,0.272,2.188,0.272,4.033h-13.313c0.057,1.862,0.491,3.356,1.306,4.481s2.074,1.688,3.781,1.688
		c1.594,0,2.865-0.531,3.815-1.596c0.531-0.618,0.907-1.334,1.13-2.146h3.024c-0.08,0.672-0.345,1.422-0.795,2.248
		s-0.952,1.5-1.506,2.024c-0.927,0.911-2.075,1.526-3.442,1.846c-0.736,0.183-1.566,0.273-2.494,0.273
		c-2.264,0-4.184-0.829-5.758-2.486c-1.573-1.657-2.359-3.979-2.359-6.964c0-2.939,0.792-5.326,2.377-7.161
		c1.586-1.834,3.658-2.751,6.217-2.751C148.388,103.807,149.639,104.111,150.851,104.721z M151.952,111.906
		c-0.125-1.332-0.412-2.397-0.864-3.195c-0.837-1.48-2.231-2.222-4.187-2.222c-1.4,0-2.575,0.511-3.523,1.53
		c-0.949,1.02-1.453,2.314-1.509,3.887H151.952z"/>
	<path fill="#58595B" d="M169.066,104.78c0.544,0.342,1.163,0.94,1.855,1.794v-9.245h2.956v25.19h-2.768v-2.547
		c-0.716,1.129-1.561,1.943-2.537,2.444s-2.094,0.752-3.354,0.752c-2.032,0-3.791-0.856-5.278-2.571s-2.229-3.996-2.229-6.846
		c0-2.666,0.678-4.975,2.033-6.93c1.357-1.953,3.295-2.931,5.814-2.931C166.956,103.892,168.124,104.188,169.066,104.78z
		 M162.2,118.504c0.827,1.321,2.153,1.982,3.979,1.982c1.417,0,2.581-0.613,3.494-1.838c0.912-1.225,1.369-2.982,1.369-5.271
		c0-2.312-0.471-4.025-1.412-5.136c-0.94-1.11-2.103-1.667-3.485-1.667c-1.542,0-2.792,0.594-3.749,1.777
		c-0.958,1.186-1.438,2.929-1.438,5.23C160.958,115.541,161.372,117.182,162.2,118.504z"/>
	<path fill="#58595B" d="M189.636,98.628c0.717-1.048,2.102-1.572,4.152-1.572c0.193,0,0.393,0.006,0.598,0.017
		c0.205,0.012,0.439,0.029,0.701,0.052v2.803c-0.322-0.022-0.557-0.036-0.699-0.042c-0.145-0.006-0.28-0.01-0.406-0.01
		c-0.945,0-1.51,0.242-1.694,0.727s-0.276,1.718-0.276,3.7h3.076v2.427h-3.076v15.791h-3.042v-15.791h-2.546v-2.427h2.546v-2.871
		C189.015,100.154,189.236,99.221,189.636,98.628z"/>
	<path fill="#58595B" d="M211.186,106.043c1.618,1.57,2.427,3.882,2.427,6.932c0,2.949-0.713,5.385-2.139,7.309
		s-3.637,2.886-6.635,2.886c-2.5,0-4.486-0.851-5.957-2.553s-2.205-3.987-2.205-6.855c0-3.073,0.774-5.521,2.324-7.343
		c1.55-1.82,3.632-2.731,6.245-2.731C207.588,103.687,209.567,104.473,211.186,106.043z M209.275,118.207
		c0.749-1.541,1.124-3.258,1.124-5.146c0-1.707-0.271-3.095-0.811-4.164c-0.857-1.685-2.332-2.527-4.428-2.527
		c-1.859,0-3.211,0.717-4.057,2.151c-0.844,1.435-1.267,3.163-1.267,5.188c0,1.947,0.423,3.568,1.267,4.865
		c0.846,1.297,2.186,1.945,4.022,1.945C207.144,120.52,208.526,119.749,209.275,118.207z"/>
	<path fill="#58595B" d="M217.475,104.217h2.923v3.161c0.238-0.615,0.825-1.364,1.76-2.247c0.934-0.883,2.011-1.324,3.23-1.324
		c0.057,0,0.153,0.006,0.29,0.017c0.137,0.012,0.37,0.034,0.7,0.068v3.247c-0.182-0.034-0.35-0.057-0.504-0.068
		s-0.322-0.018-0.504-0.018c-1.55,0-2.74,0.499-3.572,1.496s-1.247,2.145-1.247,3.443v10.527h-3.076V104.217z"/>
	<path fill="#58595B" d="M239.503,97.414h11.234c2.221,0,4.014,0.631,5.38,1.889c1.366,1.26,2.048,3.028,2.048,5.307
		c0,1.96-0.609,3.666-1.827,5.119c-1.219,1.452-3.083,2.178-5.595,2.178h-7.839v10.613h-3.401V97.414z M252.694,100.867
		c-0.746-0.354-1.771-0.53-3.071-0.53h-6.719v8.698h6.719c1.517,0,2.746-0.324,3.69-0.974c0.945-0.649,1.417-1.794,1.417-3.435
		C254.73,102.781,254.052,101.527,252.694,100.867z"/>
	<path fill="#58595B" d="M273.419,104.721c1.211,0.609,2.134,1.398,2.768,2.367c0.611,0.922,1.02,1.999,1.223,3.229
		c0.182,0.843,0.272,2.188,0.272,4.033h-13.313c0.057,1.862,0.492,3.356,1.307,4.481c0.813,1.125,2.074,1.688,3.781,1.688
		c1.594,0,2.865-0.531,3.814-1.596c0.531-0.618,0.908-1.334,1.13-2.146h3.024c-0.08,0.672-0.344,1.422-0.795,2.248
		c-0.449,0.826-0.951,1.5-1.506,2.024c-0.927,0.911-2.074,1.526-3.442,1.846c-0.735,0.183-1.566,0.273-2.493,0.273
		c-2.265,0-4.184-0.829-5.758-2.486s-2.36-3.979-2.36-6.964c0-2.939,0.792-5.326,2.378-7.161c1.585-1.834,3.657-2.751,6.217-2.751
		C270.956,103.807,272.206,104.111,273.419,104.721z M274.521,111.906c-0.125-1.332-0.413-2.397-0.865-3.195
		c-0.836-1.48-2.23-2.222-4.186-2.222c-1.4,0-2.576,0.511-3.524,1.53c-0.949,1.02-1.452,2.314-1.509,3.887H274.521z"/>
	<path fill="#58595B" d="M281.664,104.217h2.923v3.161c0.238-0.615,0.825-1.364,1.76-2.247c0.934-0.883,2.011-1.324,3.23-1.324
		c0.057,0,0.153,0.006,0.29,0.017c0.137,0.012,0.37,0.034,0.7,0.068v3.247c-0.182-0.034-0.35-0.057-0.504-0.068
		s-0.322-0.018-0.504-0.018c-1.55,0-2.74,0.499-3.572,1.496s-1.247,2.145-1.247,3.443v10.527h-3.076V104.217z"/>
	<path fill="#58595B" d="M294.669,98.628c0.719-1.048,2.103-1.572,4.153-1.572c0.193,0,0.394,0.006,0.599,0.017
		c0.205,0.012,0.438,0.029,0.7,0.052v2.803c-0.323-0.022-0.556-0.036-0.7-0.042s-0.279-0.01-0.406-0.01
		c-0.944,0-1.51,0.242-1.693,0.727s-0.276,1.718-0.276,3.7h3.076v2.427h-3.076v15.791h-3.042v-15.791h-2.547v-2.427h2.547v-2.871
		C294.048,100.154,294.271,99.221,294.669,98.628z"/>
	<path fill="#58595B" d="M316.22,106.043c1.617,1.57,2.426,3.882,2.426,6.932c0,2.949-0.713,5.385-2.138,7.309
		c-1.426,1.924-3.638,2.886-6.636,2.886c-2.5,0-4.485-0.851-5.956-2.553s-2.206-3.987-2.206-6.855c0-3.073,0.775-5.521,2.324-7.343
		c1.551-1.82,3.633-2.731,6.246-2.731C312.622,103.687,314.601,104.473,316.22,106.043z M314.31,118.207
		c0.749-1.541,1.123-3.258,1.123-5.146c0-1.707-0.27-3.095-0.811-4.164c-0.856-1.685-2.332-2.527-4.428-2.527
		c-1.859,0-3.211,0.717-4.056,2.151s-1.267,3.163-1.267,5.188c0,1.947,0.422,3.568,1.267,4.865s2.186,1.945,4.022,1.945
		C312.177,120.52,313.56,119.749,314.31,118.207z"/>
	<path fill="#58595B" d="M322.509,104.217h2.922v3.161c0.24-0.615,0.826-1.364,1.761-2.247s2.011-1.324,3.229-1.324
		c0.057,0,0.154,0.006,0.291,0.017c0.137,0.012,0.37,0.034,0.701,0.068v3.247c-0.184-0.034-0.352-0.057-0.505-0.068
		s-0.321-0.018-0.504-0.018c-1.55,0-2.74,0.499-3.571,1.496c-0.832,0.997-1.248,2.145-1.248,3.443v10.527h-3.076V104.217z"/>
	<path fill="#58595B" d="M334.079,104.217h3.041v2.598c0.729-0.9,1.391-1.556,1.982-1.966c1.014-0.694,2.165-1.042,3.453-1.042
		c1.457,0,2.631,0.358,3.52,1.076c0.502,0.41,0.957,1.014,1.367,1.812c0.684-0.979,1.487-1.706,2.41-2.179s1.959-0.709,3.11-0.709
		c2.461,0,4.136,0.889,5.024,2.666c0.479,0.957,0.718,2.244,0.718,3.861v12.186h-3.196v-12.715c0-1.219-0.305-2.057-0.914-2.512
		c-0.609-0.456-1.354-0.684-2.23-0.684c-1.207,0-2.247,0.404-3.119,1.213c-0.871,0.809-1.307,2.159-1.307,4.051v10.646h-3.127
		v-11.945c0-1.242-0.148-2.148-0.445-2.718c-0.467-0.854-1.338-1.282-2.614-1.282c-1.162,0-2.22,0.451-3.171,1.351
		c-0.951,0.9-1.426,2.529-1.426,4.888v9.707h-3.076V104.217z"/>
	<path fill="#58595B" d="M373.044,111.443c0.707-0.092,1.18-0.387,1.418-0.888c0.137-0.274,0.205-0.669,0.205-1.184
		c0-1.052-0.373-1.815-1.117-2.29s-1.811-0.713-3.197-0.713c-1.604,0-2.74,0.436-3.412,1.306c-0.375,0.481-0.619,1.196-0.732,2.147
		h-2.871c0.057-2.263,0.787-3.836,2.193-4.723c1.404-0.885,3.035-1.328,4.891-1.328c2.15,0,3.896,0.41,5.24,1.23
		c1.33,0.82,1.996,2.098,1.996,3.829v10.545c0,0.319,0.066,0.575,0.197,0.769s0.406,0.29,0.828,0.29
		c0.137,0,0.291-0.009,0.461-0.025c0.172-0.017,0.354-0.042,0.547-0.077v2.273c-0.479,0.137-0.842,0.222-1.094,0.256
		c-0.25,0.034-0.592,0.051-1.025,0.051c-1.059,0-1.828-0.375-2.307-1.127c-0.25-0.398-0.428-0.963-0.529-1.691
		c-0.627,0.82-1.527,1.531-2.701,2.136c-1.172,0.603-2.467,0.905-3.879,0.905c-1.697,0-3.084-0.516-4.16-1.545
		c-1.078-1.029-1.615-2.318-1.615-3.865c0-1.695,0.529-3.01,1.588-3.943c1.061-0.934,2.451-1.508,4.17-1.725L373.044,111.443z
		 M366.565,119.753c0.65,0.512,1.42,0.767,2.309,0.767c1.082,0,2.129-0.25,3.145-0.75c1.709-0.83,2.562-2.189,2.562-4.078v-2.475
		c-0.375,0.24-0.857,0.44-1.449,0.601s-1.172,0.274-1.74,0.343l-1.859,0.238c-1.113,0.148-1.951,0.381-2.514,0.699
		c-0.951,0.535-1.426,1.387-1.426,2.559C365.593,118.542,365.917,119.241,366.565,119.753z"/>
	<path fill="#58595B" d="M382.698,104.217h2.922v2.598c0.867-1.071,1.783-1.84,2.752-2.308c0.969-0.467,2.045-0.7,3.23-0.7
		c2.598,0,4.352,0.905,5.264,2.717c0.502,0.991,0.752,2.41,0.752,4.256v11.74h-3.127v-11.535c0-1.117-0.166-2.018-0.496-2.701
		c-0.547-1.139-1.539-1.709-2.975-1.709c-0.729,0-1.326,0.074-1.793,0.223c-0.844,0.251-1.584,0.752-2.223,1.504
		c-0.512,0.604-0.846,1.229-1,1.871c-0.152,0.645-0.23,1.564-0.23,2.76v9.588h-3.076V104.217z"/>
	<path fill="#58595B" d="M414.255,105.19c1.293,1.003,2.07,2.729,2.334,5.179h-2.992c-0.182-1.129-0.598-2.065-1.246-2.812
		c-0.65-0.746-1.693-1.12-3.129-1.12c-1.959,0-3.359,0.957-4.203,2.868c-0.547,1.24-0.82,2.771-0.82,4.591
		c0,1.833,0.387,3.375,1.162,4.627s1.994,1.877,3.656,1.877c1.277,0,2.287-0.389,3.035-1.166c0.746-0.777,1.262-1.842,1.545-3.191
		h2.992c-0.342,2.426-1.197,4.201-2.564,5.323s-3.115,1.683-5.246,1.683c-2.393,0-4.301-0.873-5.725-2.623
		c-1.426-1.748-2.137-3.934-2.137-6.554c0-3.213,0.779-5.714,2.342-7.503c1.561-1.788,3.549-2.683,5.963-2.683
		C411.284,103.687,412.962,104.188,414.255,105.19z"/>
	<path fill="#58595B" d="M430.97,104.721c1.211,0.609,2.135,1.398,2.77,2.367c0.611,0.922,1.018,1.999,1.223,3.229
		c0.182,0.843,0.271,2.188,0.271,4.033h-13.312c0.057,1.862,0.492,3.356,1.305,4.481c0.814,1.125,2.074,1.688,3.781,1.688
		c1.594,0,2.867-0.531,3.816-1.596c0.531-0.618,0.908-1.334,1.129-2.146h3.025c-0.08,0.672-0.346,1.422-0.795,2.248
		c-0.451,0.826-0.953,1.5-1.506,2.024c-0.928,0.911-2.076,1.526-3.443,1.846c-0.734,0.183-1.566,0.273-2.494,0.273
		c-2.264,0-4.184-0.829-5.756-2.486c-1.574-1.657-2.361-3.979-2.361-6.964c0-2.939,0.793-5.326,2.377-7.161
		c1.586-1.834,3.658-2.751,6.217-2.751C428.507,103.807,429.759,104.111,430.97,104.721z M432.071,111.906
		c-0.123-1.332-0.412-2.397-0.863-3.195c-0.836-1.48-2.232-2.222-4.186-2.222c-1.402,0-2.576,0.511-3.525,1.53
		s-1.451,2.314-1.508,3.887H432.071z"/>
</g>
</svg>
